<svg width="473" height="194" viewBox="0 0 473 194" fill="none" xmlns="http://www.w3.org/2000/svg">
<path d="M49.1392 145.305L12.2624 89.5996H0V164.441H12.2624V108.633L49.1392 164.441H61.3888V89.5996H49.1392V145.305Z" fill="black"/>
<path d="M192.023 126.055C199.23 123.47 204.708 117.991 204.708 108.954C204.708 98.4199 196.324 89.7031 180.516 89.7031H152.023V164.43H181.911C197.182 164.43 206.423 155.726 206.423 144.321C206.423 135.399 199.972 127.438 192.011 126.042L192.023 126.055ZM164.286 99.7127H179.441C187.403 99.7127 192.241 103.694 192.241 110.465C192.241 117.236 187.403 121.114 179.441 121.114H164.286V99.7127ZM180.849 154.446H164.286V131.111H180.414C188.58 131.111 194.174 135.63 194.174 143.041C194.174 150.452 189.118 154.433 180.836 154.433L180.849 154.446Z" fill="black"/>
<path d="M398.463 103.821C393.074 103.821 388.057 105.153 383.858 107.444V86.1445H371.801V164.442H383.756V164.225H383.858V131.725C383.858 121.063 389.682 115.585 398.566 115.585C407.449 115.585 413.17 121.076 413.17 131.725V164.442H425.126V125.927C425.126 113.716 413.183 103.821 398.463 103.821Z" fill="black"/>
<path d="M248.727 115.251C240.471 115.251 233.776 120.038 233.776 125.951V144.396V154.751V164.454H221.629V126.015C221.629 113.83 233.763 103.961 248.727 103.961V115.263V115.251Z" fill="black"/>
<path d="M457.703 120.589V114.983H472.653V105.075H457.703V90.4707H445.556V105.075H438.887V114.983H445.556V142.592C445.556 154.727 457.69 164.557 472.653 164.557V153.293C464.397 153.293 457.703 148.519 457.703 142.644V120.602V120.589Z" fill="black"/>
<path d="M265.781 164.442H278.044V106.995C273.628 105.267 269.532 103.091 265.781 100.506V164.442Z" fill="black"/>
<path d="M121.396 113.689V142.617C121.396 148.556 114.701 153.369 106.445 153.369C98.1893 153.369 91.4949 148.556 91.4949 142.617V103.936H79.3477V142.566C79.3477 154.803 91.4821 164.723 106.445 164.723C121.408 164.723 133.543 154.803 133.543 142.566V114.777C129.421 114.611 125.364 114.188 121.396 113.523V113.689Z" fill="black"/>
<path d="M353.307 139.379V105.203H340.942V110.016C335.912 106.381 329.742 104.23 323.061 104.23C306.165 104.23 292.469 117.926 292.469 134.822C292.469 151.718 306.165 165.414 323.061 165.414C329.742 165.414 335.912 163.264 340.942 159.629V165.414C340.942 165.555 340.93 165.696 340.93 165.837V166.272H340.917C340.571 177.51 333.621 183.053 324.392 183.053C315.893 183.053 309.339 178.854 307.509 172.736H295.362C296.872 185.856 308.584 193.702 324.392 193.702C342.888 193.702 353.32 181.555 353.32 165.427V139.392L353.307 139.379ZM340.93 135.142V136.781C340.059 148.314 331.803 154.765 323.061 154.765C314.318 154.765 305.102 147.341 305.102 134.554C305.102 121.766 313.922 114.88 323.061 114.88C332.2 114.88 340.059 121.331 340.93 132.774V134.4C340.93 134.528 340.942 134.643 340.942 134.771C340.942 134.899 340.93 135.014 340.93 135.142Z" fill="black"/>
<path d="M65.7812 78.9629C82.3316 99.2509 107.266 112.486 135.49 113.241C135.746 113.241 136.002 113.241 136.258 113.241C119.708 92.9533 94.7732 79.7181 66.5493 78.9629C66.2933 78.9629 66.0372 78.9629 65.7812 78.9629Z" fill="url(#paint0_linear_343_1726)"/>
<path d="M93.8867 29.5547C96.3571 58.0859 110.744 85.4267 135.794 103.487C136.024 103.654 136.255 103.795 136.485 103.961C134.015 75.4299 119.628 48.0891 94.5779 30.0283C94.3475 29.8619 94.1171 29.7211 93.8867 29.5547Z" fill="url(#paint1_linear_343_1726)"/>
<path d="M147.339 0C132.401 25.8944 128.382 57.8944 139.045 88.3328C139.147 88.6144 139.262 88.8704 139.352 89.152C154.289 63.2576 158.309 31.2576 147.646 0.8192C147.544 0.5376 147.429 0.2816 147.339 0Z" fill="url(#paint2_linear_343_1726)"/>
<path d="M201.091 3.00781C177.577 15.0782 159.235 36.9022 152.553 64.6142C152.489 64.8702 152.451 65.1134 152.387 65.3694C175.9 53.299 194.243 31.475 200.924 3.76301C200.988 3.50701 201.027 3.26381 201.091 3.00781Z" fill="url(#paint3_linear_343_1726)"/>
<path d="M238.899 22.6954C216.487 22.3114 194.035 31.3098 177.946 49.3578C177.805 49.5242 177.664 49.6906 177.523 49.857C199.936 50.241 222.387 41.2426 238.477 23.1946C238.618 23.0282 238.759 22.8618 238.899 22.6954Z" fill="url(#paint4_linear_343_1726)"/>
<path d="M261.593 49.8174C245.285 41.203 225.458 39.4494 206.937 46.7198C206.77 46.7838 206.604 46.8606 206.438 46.9246C222.745 55.539 242.572 57.2926 261.093 50.0222C261.26 49.9582 261.426 49.8814 261.593 49.8174Z" fill="url(#paint5_linear_343_1726)"/>
<path d="M273.869 78.6052C264.308 66.0996 249.588 57.6644 232.64 56.6788C232.487 56.6788 232.333 56.6788 232.18 56.666C241.741 69.1716 256.461 77.6068 273.408 78.5924C273.562 78.5924 273.716 78.5924 273.869 78.6052Z" fill="#3B49D4"/>
<path d="M278.362 105.012C273.792 91.5847 263.642 80.1543 249.447 74.4455C249.319 74.3943 249.191 74.3559 249.062 74.3047C253.632 87.7319 263.782 99.1623 277.978 104.871C278.106 104.922 278.234 104.961 278.362 105.012Z" fill="#2B78EB"/>
<defs>
<linearGradient id="paint0_linear_343_1726" x1="95" y1="82.5996" x2="138.2" y2="116.6" gradientUnits="userSpaceOnUse">
<stop stop-color="#FFB93D"/>
<stop offset="1" stop-color="#FEE452"/>
</linearGradient>
<linearGradient id="paint1_linear_343_1726" x1="93.9992" y1="71.3996" x2="140.399" y2="82.9996" gradientUnits="userSpaceOnUse">
<stop stop-color="#FF562E"/>
<stop offset="1" stop-color="#FBC41F"/>
</linearGradient>
<linearGradient id="paint2_linear_343_1726" x1="143.199" y1="89.2" x2="153.599" y2="8.44682e-07" gradientUnits="userSpaceOnUse">
<stop stop-color="#FFB93D"/>
<stop offset="0.5" stop-color="#FF8735"/>
<stop offset="1" stop-color="#FF562E"/>
</linearGradient>
<linearGradient id="paint3_linear_343_1726" x1="148.199" y1="19.9996" x2="169.399" y2="67.5996" gradientUnits="userSpaceOnUse">
<stop stop-color="#FF562E"/>
<stop offset="0.581639" stop-color="#FB83C5"/>
<stop offset="1" stop-color="#FACDD1"/>
</linearGradient>
<linearGradient id="paint4_linear_343_1726" x1="208.211" y1="22.6836" x2="211.398" y2="45.6008" gradientUnits="userSpaceOnUse">
<stop stop-color="#FB83C5"/>
<stop offset="1" stop-color="#FEC8E5"/>
</linearGradient>
<linearGradient id="paint5_linear_343_1726" x1="206.438" y1="48.371" x2="261.593" y2="48.371" gradientUnits="userSpaceOnUse">
<stop stop-color="#B294F2"/>
<stop offset="1" stop-color="#8E5CFB"/>
</linearGradient>
</defs>
</svg>
