<svg width="613" height="194" viewBox="0 0 613 194" fill="none" xmlns="http://www.w3.org/2000/svg">
<g clip-path="url(#clip0_751_1828)">
<path d="M490.164 105.056H502.734V107.91H493.671V114.208H500.737V117.063H493.671V126.407H490.164V105.056Z" fill="black"/>
<path d="M521.321 126.407H517.813V124.384C517.206 125.117 516.439 125.702 515.572 126.094C514.705 126.487 513.76 126.677 512.808 126.65C508.84 126.65 505.832 124.167 505.832 119.431V109.484H509.301V118.906C509.301 122.016 510.991 123.616 513.551 123.616C516.111 123.616 517.813 122.016 517.813 118.906V109.484H521.321V126.407Z" fill="black"/>
<path d="M537.936 116.947C537.936 113.837 536.246 112.25 533.699 112.25C531.151 112.25 529.423 113.837 529.423 116.947V126.407H525.929V109.485H529.423V111.366C530.052 110.653 530.83 110.085 531.701 109.702C532.572 109.32 533.516 109.132 534.467 109.152C538.435 109.152 541.405 111.635 541.405 116.371V126.356H537.936V116.947Z" fill="black"/>
<path d="M552.721 109.203C553.825 109.207 554.915 109.444 555.921 109.898C556.927 110.353 557.826 111.014 558.558 111.84V103.686H562.091V126.407H558.558V123.847C557.885 124.766 556.999 125.509 555.976 126.011C554.952 126.512 553.822 126.758 552.683 126.727C548.228 126.727 544.695 123.13 544.695 117.907C544.695 112.684 548.228 109.203 552.721 109.203ZM553.425 112.249C552.712 112.255 552.007 112.409 551.356 112.7C550.704 112.991 550.12 113.414 549.639 113.942C549.158 114.469 548.792 115.09 548.562 115.766C548.333 116.442 548.245 117.158 548.305 117.869C548.305 121.517 550.865 123.642 553.425 123.642C554.843 123.507 556.159 122.849 557.118 121.796C558.076 120.742 558.607 119.369 558.607 117.946C558.607 116.522 558.076 115.149 557.118 114.095C556.159 113.042 554.843 112.384 553.425 112.249Z" fill="black"/>
<path d="M494.644 164.387C490.369 164.387 487.079 162.057 487.079 158.281H490.83C490.863 158.745 490.99 159.198 491.203 159.611C491.417 160.025 491.712 160.39 492.071 160.686C492.43 160.982 492.846 161.201 493.293 161.331C493.739 161.462 494.208 161.499 494.67 161.443C497.128 161.443 498.51 160.163 498.51 158.306C498.51 153.186 487.169 156.502 487.169 148.629C487.169 144.879 490.151 142.549 494.516 142.549C498.6 142.549 501.493 144.699 501.8 148.36H497.96C497.836 147.518 497.394 146.756 496.725 146.23C496.055 145.703 495.21 145.454 494.363 145.531C492.34 145.531 490.778 146.453 490.778 148.501C490.778 153.327 502.082 150.319 502.082 158.127C502.018 161.289 499.406 164.387 494.644 164.387Z" fill="black"/>
<path d="M513.449 164.45C508.584 164.45 504.987 161.007 504.987 155.695C504.987 150.382 508.431 146.977 513.449 146.977C514.55 146.929 515.649 147.112 516.676 147.515C517.702 147.917 518.633 148.53 519.408 149.313C520.183 150.097 520.786 151.034 521.177 152.065C521.568 153.096 521.739 154.197 521.679 155.298C521.682 155.872 521.639 156.445 521.551 157.013H508.623C508.644 157.625 508.786 158.227 509.04 158.784C509.295 159.341 509.656 159.843 510.104 160.26C510.552 160.677 511.079 161.002 511.652 161.216C512.226 161.43 512.837 161.528 513.449 161.506C514.275 161.56 515.099 161.363 515.812 160.94C516.525 160.518 517.093 159.889 517.442 159.138H521.219C520.696 160.76 519.649 162.162 518.243 163.124C516.836 164.085 515.149 164.552 513.449 164.45ZM508.648 154.21H518.018C518.004 153.614 517.869 153.027 517.621 152.485C517.373 151.943 517.017 151.457 516.575 151.057C516.133 150.657 515.615 150.351 515.051 150.158C514.487 149.965 513.889 149.889 513.295 149.934C512.125 149.924 510.994 150.359 510.132 151.15C509.269 151.941 508.739 153.03 508.648 154.197V154.21Z" fill="black"/>
<path d="M528.669 164.182H525.161V147.208H528.669V149.768C529.185 148.883 529.937 148.159 530.841 147.678C531.746 147.196 532.766 146.976 533.789 147.042V150.664H532.906C530.345 150.664 528.72 151.74 528.72 155.337L528.669 164.182Z" fill="black"/>
<path d="M538.665 147.208L543.453 161.007L548.253 147.208H551.965L545.565 164.143H541.341L534.94 147.208H538.665Z" fill="black"/>
<path d="M554.142 142.766C554.144 142.327 554.276 141.899 554.522 141.535C554.767 141.171 555.114 140.887 555.52 140.72C555.925 140.553 556.371 140.509 556.802 140.594C557.232 140.68 557.628 140.89 557.939 141.2C558.251 141.509 558.463 141.904 558.551 142.334C558.639 142.764 558.598 143.21 558.433 143.617C558.268 144.023 557.986 144.372 557.624 144.619C557.261 144.867 556.833 145.001 556.395 145.006C556.099 145.01 555.805 144.954 555.531 144.843C555.257 144.732 555.008 144.567 554.798 144.359C554.589 144.15 554.423 143.902 554.31 143.628C554.197 143.355 554.14 143.062 554.142 142.766ZM554.602 147.246H558.11V164.182H554.602V147.246Z" fill="black"/>
<path d="M569.849 146.978C573.996 146.978 576.697 149.026 577.657 152.597H573.817C573.536 151.77 572.99 151.059 572.263 150.575C571.536 150.091 570.669 149.861 569.797 149.922C566.968 149.922 565.099 152.008 565.099 155.695C565.099 159.381 566.968 161.506 569.797 161.506C570.672 161.588 571.549 161.366 572.28 160.879C573.012 160.392 573.554 159.669 573.817 158.831H577.657C577.19 160.517 576.162 161.993 574.742 163.015C573.322 164.037 571.595 164.543 569.849 164.45C564.997 164.45 561.554 161.007 561.554 155.695C561.554 150.383 564.997 146.978 569.849 146.978Z" fill="black"/>
<path d="M588.435 164.451C583.583 164.451 579.986 161.007 579.986 155.695C579.986 150.383 583.43 146.978 588.435 146.978C589.537 146.928 590.637 147.109 591.664 147.511C592.691 147.913 593.623 148.525 594.399 149.31C595.174 150.094 595.777 151.032 596.167 152.063C596.558 153.095 596.728 154.197 596.666 155.298C596.672 155.872 596.634 156.446 596.55 157.014H583.609C583.63 157.626 583.772 158.227 584.027 158.785C584.281 159.342 584.642 159.843 585.09 160.26C585.539 160.678 586.065 161.003 586.639 161.216C587.212 161.43 587.823 161.529 588.435 161.507C589.262 161.561 590.085 161.363 590.798 160.941C591.511 160.518 592.079 159.89 592.429 159.139H596.205C595.682 160.76 594.636 162.163 593.229 163.124C591.822 164.086 590.136 164.553 588.435 164.451ZM583.635 154.21H593.005C592.991 153.614 592.856 153.027 592.608 152.485C592.359 151.943 592.004 151.458 591.562 151.058C591.12 150.658 590.601 150.352 590.037 150.159C589.473 149.966 588.876 149.889 588.281 149.935C587.111 149.925 585.98 150.359 585.118 151.15C584.255 151.942 583.725 153.031 583.635 154.197V154.21Z" fill="black"/>
<path d="M606.253 164.451C602.196 164.451 599.341 162.057 599.188 158.985H602.81C602.942 159.761 603.365 160.458 603.993 160.934C604.621 161.409 605.406 161.628 606.189 161.545C608.212 161.545 609.287 160.687 609.287 159.51C609.287 156.194 599.456 158.102 599.456 151.829C599.456 149.128 602.016 146.952 605.972 146.952C609.927 146.952 612.372 149 612.513 152.38H609.018C608.979 152.007 608.865 151.646 608.684 151.318C608.502 150.99 608.257 150.701 607.962 150.47C607.667 150.238 607.329 150.068 606.968 149.97C606.606 149.871 606.228 149.846 605.857 149.896C603.975 149.896 602.989 150.664 602.989 151.804C602.989 155.209 612.551 153.301 612.731 159.484C612.731 162.3 610.247 164.451 606.253 164.451Z" fill="black"/>
<path d="M49.1418 145.313L12.2631 89.6045H0V164.45H12.2631V108.639L49.1418 164.45H61.3921V89.6045H49.1418V145.313Z" fill="black"/>
<path d="M192.011 126.061C199.218 123.5 204.696 117.996 204.696 108.959C204.696 98.4239 196.312 89.7578 180.503 89.7578H152.034V164.488H181.937C197.195 164.488 206.45 155.771 206.45 144.378C206.45 135.418 199.998 127.456 192.011 126.061ZM164.297 99.7167H179.453C187.415 99.7167 192.254 103.698 192.254 110.469C192.254 117.241 187.415 121.119 179.453 121.119H164.297V99.7167ZM180.861 154.452H164.297V131.117H180.49C188.657 131.117 194.251 135.635 194.251 143.047C194.187 150.254 189.131 154.452 180.861 154.452Z" fill="black"/>
<path d="M398.485 103.826C393.39 103.794 388.369 105.039 383.88 107.449V86.1484H371.821V164.45H383.777V164.233H383.88V131.732C383.88 121.069 389.704 115.59 398.588 115.59C407.471 115.59 413.193 121.069 413.193 131.732V164.45H425.149V125.92C425.149 113.721 413.206 103.826 398.485 103.826Z" fill="black"/>
<path d="M248.743 115.206C240.486 115.206 233.791 119.993 233.791 125.895V164.399H221.644V125.997C221.644 113.824 233.779 103.941 248.743 103.941V115.206Z" fill="black"/>
<path d="M457.727 120.595V114.975H472.678V105.067H457.727V90.4746H445.579V105.067H438.91V114.975H445.579V142.586C445.579 154.721 457.714 164.552 472.678 164.552V153.288C464.422 153.288 457.727 148.526 457.727 142.637V120.595Z" fill="black"/>
<path d="M265.793 164.45H278.056V107.001C273.732 105.318 269.617 103.14 265.793 100.511V164.45Z" fill="black"/>
<path d="M121.402 113.696V142.625C121.402 148.565 114.707 153.378 106.451 153.378C98.1941 153.378 91.4993 148.565 91.4993 142.625V103.941H79.3643V142.574C79.3643 154.811 91.4993 164.732 106.463 164.732C121.427 164.732 133.562 154.811 133.562 142.574V114.784C129.49 114.612 125.433 114.185 121.415 113.504L121.402 113.696Z" fill="black"/>
<path d="M353.299 139.387V105.196H340.934V110.009C336.365 106.714 330.975 104.745 325.359 104.318C319.742 103.89 314.116 105.022 309.102 107.589C304.087 110.155 299.878 114.056 296.939 118.861C294 123.667 292.445 129.19 292.445 134.823C292.445 140.456 294 145.98 296.939 150.785C299.878 155.591 304.087 159.492 309.102 162.058C314.116 164.624 319.742 165.756 325.359 165.329C330.975 164.902 336.365 162.932 340.934 159.637V165.41C340.934 165.564 340.934 165.692 340.934 165.833V166.268C340.601 177.507 333.638 183.05 324.408 183.05C315.921 183.05 309.355 178.851 307.537 172.732H295.376C296.887 185.84 308.612 193.7 324.408 193.7C342.905 193.7 353.338 181.539 353.338 165.41L353.299 139.387ZM340.921 135.15V136.788C340.051 148.309 331.794 154.709 323 154.709C313.86 154.709 305.079 147.285 305.079 134.497C305.079 121.709 313.899 114.809 323 114.809C331.743 114.809 339.999 121.274 340.921 132.73V134.407C340.921 134.535 340.921 134.65 340.921 134.778C340.921 134.906 340.947 135.022 340.947 135.15H340.921Z" fill="black"/>
<path d="M65.7832 78.9678C74.2431 89.3717 84.8537 97.8221 96.8868 103.739C108.92 109.656 122.091 112.9 135.496 113.248C135.752 113.248 136.008 113.248 136.264 113.248C127.807 102.844 117.199 94.393 105.168 88.4757C93.1364 82.5584 79.9672 79.3149 66.564 78.9678H65.7832Z" fill="url(#paint0_linear_751_1828)"/>
<path d="M93.8936 29.5566C95.1317 44.1745 99.5184 58.3514 106.753 71.1139C113.987 83.8764 123.897 94.9224 135.803 103.493L136.494 103.967C135.261 89.3479 130.877 75.1692 123.642 62.4059C116.407 49.6427 106.494 38.5976 94.5848 30.0303C94.3672 29.8639 94.124 29.723 93.8936 29.5566Z" fill="url(#paint1_linear_751_1828)"/>
<path d="M147.349 0C139.674 13.2513 134.958 28.0072 133.526 43.2537C132.094 58.5003 133.98 73.8761 139.054 88.3247C139.144 88.5936 139.259 88.8624 139.361 89.144C147.036 75.8926 151.752 61.1368 153.184 45.8902C154.616 30.6437 152.73 15.2679 147.656 0.819244C147.567 0.537629 147.451 0.281615 147.349 0Z" fill="url(#paint2_linear_751_1828)"/>
<path d="M201.099 3.00781C189.04 9.16432 178.458 17.859 170.079 28.4942C161.7 39.1294 155.723 51.4529 152.559 64.6175C152.495 64.8735 152.457 65.1167 152.393 65.3728C164.457 59.2192 175.047 50.526 183.433 39.8908C191.818 29.2555 197.802 16.9305 200.971 3.76305C200.971 3.50704 201.035 3.25103 201.099 3.00781Z" fill="url(#paint3_linear_751_1828)"/>
<path d="M238.913 22.6955C227.427 22.4738 216.029 24.741 205.502 29.3415C194.976 33.9419 185.57 40.7665 177.93 49.3465C177.777 49.5129 177.649 49.6921 177.508 49.8585C188.989 50.0748 200.38 47.8036 210.9 43.201C221.42 38.5984 230.819 31.7734 238.452 23.1947C238.644 23.0411 238.772 22.8619 238.913 22.6955Z" fill="url(#paint4_linear_751_1828)"/>
<path d="M261.608 49.8203C253.26 45.3932 244.052 42.8243 234.618 42.2896C225.183 41.7549 215.745 43.2671 206.949 46.7225L206.45 46.9401C214.802 51.3709 224.014 53.942 233.453 54.4767C242.893 55.0114 252.336 53.4971 261.135 50.0379L261.608 49.8203Z" fill="url(#paint5_linear_751_1828)"/>
<path d="M273.935 78.6092C269.053 72.1946 262.839 66.9132 255.722 63.128C248.605 59.3428 240.752 57.1436 232.704 56.6816H232.243C237.121 63.0876 243.327 68.3628 250.435 72.1454C257.543 75.9281 265.385 78.1287 273.423 78.5964L273.935 78.6092Z" fill="#3B49D4"/>
<path d="M278.377 104.966C276.051 98.0843 272.262 91.7884 267.27 86.5114C262.278 81.2345 256.202 77.1018 249.46 74.3977L249.076 74.2441C251.404 81.1245 255.194 87.4192 260.186 92.6959C265.178 97.9725 271.252 102.106 277.993 104.812L278.377 104.966Z" fill="#2B78EB"/>
</g>
<defs>
<linearGradient id="paint0_linear_751_1828" x1="95.0035" y1="82.6047" x2="138.206" y2="116.607" gradientUnits="userSpaceOnUse">
<stop stop-color="#FFB93D"/>
<stop offset="1" stop-color="#FEE452"/>
</linearGradient>
<linearGradient id="paint1_linear_751_1828" x1="94.0061" y1="71.4038" x2="140.409" y2="83.0044" gradientUnits="userSpaceOnUse">
<stop stop-color="#FF562E"/>
<stop offset="1" stop-color="#FBC41F"/>
</linearGradient>
<linearGradient id="paint2_linear_751_1828" x1="143.209" y1="89.192" x2="153.616" y2="0.00186168" gradientUnits="userSpaceOnUse">
<stop stop-color="#FFB93D"/>
<stop offset="0.5" stop-color="#FF8735"/>
<stop offset="1" stop-color="#FF562E"/>
</linearGradient>
<linearGradient id="paint3_linear_751_1828" x1="148.205" y1="20.0005" x2="169.406" y2="67.6031" gradientUnits="userSpaceOnUse">
<stop stop-color="#FF562E"/>
<stop offset="0.581639" stop-color="#FB83C5"/>
<stop offset="1" stop-color="#FACDD1"/>
</linearGradient>
<linearGradient id="paint4_linear_751_1828" x1="208.21" y1="22.6807" x2="211.397" y2="45.6038" gradientUnits="userSpaceOnUse">
<stop stop-color="#FB83C5"/>
<stop offset="1" stop-color="#FEC8E5"/>
</linearGradient>
<linearGradient id="paint5_linear_751_1828" x1="206.45" y1="48.3831" x2="261.608" y2="48.3831" gradientUnits="userSpaceOnUse">
<stop stop-color="#B294F2"/>
<stop offset="1" stop-color="#8E5CFB"/>
</linearGradient>
<clipPath id="clip0_751_1828">
<rect width="612.73" height="193.7" fill="white"/>
</clipPath>
</defs>
</svg>
