<svg width="16" height="16" viewBox="0 0 16 16" fill="none" xmlns="http://www.w3.org/2000/svg">
<path d="M13.2555 8.22129C13.2908 7.88925 13.2555 2.81514 13.2555 2.81514C9.3282 2.98489 8.20281 1.3421 8.20281 1.3421C7.1202 2.91644 3.15916 2.81378 3.15916 2.81378C3.15916 2.81378 3.05648 4.86726 3.15916 8.59779C3.26184 12.3283 8.20734 13.4919 8.20734 13.4919C13.4865 11.9433 13.2127 8.62344 13.2555 8.22129ZM7.7453 9.7614L5.24687 7.48432L5.89715 6.95497L7.24903 7.98171C7.24903 7.98171 9.08006 6.03089 10.894 5.14105L11.1678 5.44908C11.1678 5.44908 8.77204 7.43412 7.7453 9.7614Z" fill="#C7CACD"/>
</svg>
