<svg width="16" height="16" viewBox="0 0 16 16" fill="none" xmlns="http://www.w3.org/2000/svg">
<g clip-path="url(#clip0_492_412)">
<path d="M11.9219 12.8645C10.7877 13.5837 9.44262 14.0001 8.00028 14.0001C4.4055 14.0001 1.41485 11.4136 0.787842 8.00013C1.07896 6.41521 1.87963 5.0086 3.01373 3.95638L0.929188 1.87184L1.872 0.929031L15.0713 14.1283L14.1285 15.0712L11.9219 12.8645ZM3.95715 4.8998C3.07123 5.70676 2.42528 6.77813 2.1486 8.00013C2.76023 10.7014 5.17648 12.6668 8.00028 12.6668C9.06655 12.6668 10.0747 12.3865 10.9496 11.8923L9.59742 10.5401C9.13495 10.8315 8.58728 11.0001 8.00028 11.0001C6.3434 11.0001 5.00026 9.65693 5.00026 8.00013C5.00026 7.41307 5.16886 6.8654 5.46029 6.40294L3.95715 4.8998ZM8.60935 9.552L6.44839 7.39107C6.37428 7.57973 6.33359 7.78513 6.33359 8.00013C6.33359 8.9206 7.07982 9.6668 8.00028 9.6668C8.21522 9.6668 8.42068 9.62607 8.60935 9.552ZM13.8713 11.0617L12.9174 10.1078C13.3547 9.48453 13.677 8.7724 13.8519 8.00013C13.2403 5.29879 10.824 3.33344 8.00028 3.33344C7.43635 3.33344 6.88868 3.41182 6.36841 3.55878L5.31639 2.50676C6.1476 2.17972 7.05295 2.0001 8.00028 2.0001C11.595 2.0001 14.5857 4.58661 15.2127 8.00013C15.0045 9.1332 14.5359 10.1752 13.8713 11.0617ZM7.81535 5.00571C7.87648 5.00199 7.93815 5.00011 8.00028 5.00011C9.65708 5.00011 11.0003 6.34325 11.0003 8.00013C11.0003 8.0622 10.9983 8.12387 10.9947 8.185L7.81535 5.00571Z" fill="#C7CACD"/>
</g>
<defs>
<clipPath id="clip0_492_412">
<rect width="16" height="16" fill="white"/>
</clipPath>
</defs>
</svg>
