<svg width="112" height="112" viewBox="0 0 112 112" fill="none" xmlns="http://www.w3.org/2000/svg">
<path d="M13 54L56 20.5L99 54V104H13V54Z" fill="black" stroke="black" stroke-width="1.4" stroke-linejoin="round"/>
<path d="M25 6.5H88C89.933 6.5 91.5 8.067 91.5 10V80.5H21.5V10C21.5 8.067 23.067 6.5 25 6.5Z" fill="url(#paint0_linear_765_2596)" stroke="#E3E6E8" stroke-width="1.4"/>
<path d="M56 79L13 54V104L56 79Z" fill="url(#paint1_linear_765_2596)" stroke="#E3E6E8" stroke-width="1.4" stroke-linejoin="round"/>
<path d="M55.9985 79.0002L99.1985 54.4002V103.6L55.9985 79.0002Z" fill="url(#paint2_linear_765_2596)"/>
<path d="M56 79L99 54V104L56 79Z" fill="url(#paint3_linear_765_2596)" stroke="#E3E6E8" stroke-width="1.4" stroke-linejoin="round"/>
<path d="M56 79L13 104H99L56 79Z" fill="url(#paint4_linear_765_2596)" stroke="#E3E6E8" stroke-width="1.4" stroke-linejoin="round"/>
<path d="M43.999 34H26.999V31H43.999V34Z" fill="#E3E6E8"/>
<path d="M57.999 27H26.999V24H57.999V27Z" fill="#E3E6E8"/>
<path d="M63.999 20H26.999V17H63.999V20Z" fill="#E3E6E8"/>
<path d="M57.2 67C48.9157 67 42.2 60.2842 42.2 52C42.2 43.7157 48.9157 37 57.2 37C65.4842 37 72.2 43.7157 72.2 52C72.2 60.2842 65.4842 67 57.2 67ZM55.7039 58L66.3105 47.3934L64.1892 45.2721L55.7039 53.7574L51.4613 49.5146L49.3399 51.6361L55.7039 58Z" fill="url(#paint5_linear_765_2596)"/>
<defs>
<linearGradient id="paint0_linear_765_2596" x1="56.5" y1="6" x2="56.5" y2="81" gradientUnits="userSpaceOnUse">
<stop offset="0.807692" stop-color="white"/>
<stop offset="1" stop-color="#F1F2F3"/>
</linearGradient>
<linearGradient id="paint1_linear_765_2596" x1="56" y1="85.5" x2="8" y2="84" gradientUnits="userSpaceOnUse">
<stop offset="0.807692" stop-color="white"/>
<stop offset="1" stop-color="#F1F2F3"/>
</linearGradient>
<linearGradient id="paint2_linear_765_2596" x1="55.9985" y1="54.4002" x2="84.8368" y2="98.9105" gradientUnits="userSpaceOnUse">
<stop stop-color="#FFFFEA"/>
<stop offset="1" stop-color="#FFE0FA"/>
</linearGradient>
<linearGradient id="paint3_linear_765_2596" x1="69" y1="54" x2="286" y2="79" gradientUnits="userSpaceOnUse">
<stop stop-color="#F1F2F3"/>
<stop offset="0.518999" stop-color="white"/>
</linearGradient>
<linearGradient id="paint4_linear_765_2596" x1="56" y1="-35" x2="67" y2="129" gradientUnits="userSpaceOnUse">
<stop offset="0.807692" stop-color="white"/>
<stop offset="1" stop-color="#E3E6E8"/>
</linearGradient>
<linearGradient id="paint5_linear_765_2596" x1="3" y1="7.6" x2="76.6594" y2="52" gradientUnits="userSpaceOnUse">
<stop stop-color="#0953BA"/>
<stop offset="0.2" stop-color="#3B49D4"/>
<stop offset="0.4" stop-color="#8E5CFB"/>
<stop offset="0.6" stop-color="#FF99ED"/>
<stop offset="0.8" stop-color="#FF562E"/>
<stop offset="1" stop-color="#FFC662"/>
</linearGradient>
</defs>
</svg>
