<svg width="32" height="32" viewBox="0 0 32 32" fill="none" xmlns="http://www.w3.org/2000/svg">
<path d="M14.5962 23.0564C15.1167 22.536 15.961 22.5362 16.4817 23.0564C17.0023 23.577 17.0023 24.4224 16.4817 24.9432L12.6965 28.727C12.1758 29.2476 11.3317 29.2477 10.8111 28.727C10.2909 28.2062 10.2906 27.3621 10.8111 26.8416L14.5962 23.0564ZM12.2264 17.8845C12.7471 17.3642 13.5913 17.3641 14.1118 17.8845C14.6326 18.4052 14.6326 19.2505 14.1118 19.7712L6.56888 27.3129C6.04817 27.8336 5.20415 27.8336 4.68345 27.3129C4.16292 26.7922 4.16284 25.9481 4.68345 25.4274L12.2264 17.8845ZM23.2278 3.61616C24.8515 2.96419 26.5002 3.36543 27.565 4.42996C28.6297 5.49476 29.0307 7.14338 28.3789 8.76724L22.7069 22.8962C22.495 23.4241 21.9703 23.7592 21.4022 23.7309C20.8341 23.7024 20.3469 23.3164 20.1887 22.77C19.4478 20.2086 18.0965 17.8366 16.1275 15.8676C14.1585 13.8986 11.7863 12.5485 9.22513 11.8076C8.67889 11.6494 8.29288 11.162 8.26419 10.5941C8.23569 10.0259 8.57108 9.50155 9.09883 9.28938L23.2278 3.61616ZM7.05456 15.5146C7.57527 14.9941 8.41932 14.994 8.93997 15.5146C9.46045 16.0353 9.46048 16.8794 8.93997 17.4001L5.15481 21.1853C4.63416 21.7058 3.79008 21.7058 3.26939 21.1853C2.74872 20.6646 2.74877 19.8205 3.26939 19.2998L7.05456 15.5146ZM25.6795 6.3154C25.3743 6.01042 24.8597 5.83391 24.2213 6.09014L13.2082 10.512C14.9502 11.386 16.5734 12.5427 18.0129 13.9821C19.4523 15.4216 20.609 17.0448 21.483 18.7868L25.9049 7.77504C26.1613 7.13642 25.9847 6.62071 25.6795 6.3154Z" fill="white"/>
</svg>
