<svg width="32" height="32" viewBox="0 0 32 32" fill="none" xmlns="http://www.w3.org/2000/svg">
<path d="M5.33854 6.67057V25.3372H26.6719V6.67057H5.33854ZM4.00521 4.00391H28.0052C28.7416 4.00391 29.3386 4.60085 29.3386 5.33724V26.6705C29.3386 27.4069 28.7416 28.0038 28.0052 28.0038H4.00521C3.26884 28.0038 2.67188 27.4069 2.67188 26.6705V5.33724C2.67188 4.60085 3.26884 4.00391 4.00521 4.00391ZM20.0052 9.33724L24.6719 13.3372L20.0052 17.3372V14.6705H14.6719V12.0039H20.0052V9.33724ZM12.0052 22.6705L7.33854 18.6705L12.0052 14.6705V17.3372H17.3386V20.0038H12.0052V22.6705Z" fill="white"/>
</svg>
