<svg width="20" height="20" viewBox="0 0 20 20" fill="none" xmlns="http://www.w3.org/2000/svg">
<path d="M16.6667 5.0013C17.5871 5.0013 18.3333 4.25509 18.3333 3.33464C18.3333 2.41416 17.5871 1.66797 16.6667 1.66797C15.7462 1.66797 15 2.41416 15 3.33464C15 4.25509 15.7462 5.0013 16.6667 5.0013Z" fill="#FF6832" stroke="#FF6832" stroke-width="0.833333"/>
<path d="M10.0026 11.6654C10.9231 11.6654 11.6693 10.9192 11.6693 9.9987C11.6693 9.07824 10.9231 8.33203 10.0026 8.33203C9.08215 8.33203 8.33594 9.07824 8.33594 9.9987C8.33594 10.9192 9.08215 11.6654 10.0026 11.6654Z" fill="#FF6832" stroke="#FF6832" stroke-width="0.833333"/>
<path d="M16.6667 18.3333C17.5871 18.3333 18.3333 17.5871 18.3333 16.6667C18.3333 15.7462 17.5871 15 16.6667 15C15.7462 15 15 15.7462 15 16.6667C15 17.5871 15.7462 18.3333 16.6667 18.3333Z" fill="#FF6832" stroke="#FF6832" stroke-width="0.833333"/>
<path d="M3.33073 5.0013C4.25119 5.0013 4.9974 4.25509 4.9974 3.33464C4.9974 2.41416 4.25119 1.66797 3.33073 1.66797C2.41025 1.66797 1.66406 2.41416 1.66406 3.33464C1.66406 4.25509 2.41025 5.0013 3.33073 5.0013Z" fill="#FF6832" stroke="#FF6832" stroke-width="0.833333"/>
<path d="M3.33073 18.3333C4.25119 18.3333 4.9974 17.5871 4.9974 16.6667C4.9974 15.7462 4.25119 15 3.33073 15C2.41025 15 1.66406 15.7462 1.66406 16.6667C1.66406 17.5871 2.41025 18.3333 3.33073 18.3333Z" fill="#FF6832" stroke="#FF6832" stroke-width="0.833333"/>
<path d="M8.33594 16.668H11.6693" stroke="#FF6832" stroke-width="0.833333"/>
<path d="M8.33594 3.33203H11.6693" stroke="#FF6832" stroke-width="0.833333"/>
<path d="M3.33594 8.33203V11.6654" stroke="#FF6832" stroke-width="0.833333"/>
<path d="M16.6641 8.33203V11.6654" stroke="#FF6832" stroke-width="0.833333"/>
</svg>
