<svg width="20" height="20" viewBox="0 0 20 20" fill="none" xmlns="http://www.w3.org/2000/svg">
<path d="M9.9987 5.0013C10.9192 5.0013 11.6654 4.25509 11.6654 3.33464C11.6654 2.41416 10.9192 1.66797 9.9987 1.66797C9.07824 1.66797 8.33203 2.41416 8.33203 3.33464C8.33203 4.25509 9.07824 5.0013 9.9987 5.0013Z" fill="#FF6832" stroke="#FF6832" stroke-width="0.833333"/>
<path d="M9.9987 18.3333C10.9192 18.3333 11.6654 17.5871 11.6654 16.6667C11.6654 15.7462 10.9192 15 9.9987 15C9.07824 15 8.33203 15.7462 8.33203 16.6667C8.33203 17.5871 9.07824 18.3333 9.9987 18.3333Z" fill="#FF6832" stroke="#FF6832" stroke-width="0.833333"/>
<path d="M3.33464 11.6654C4.25509 11.6654 5.0013 10.9192 5.0013 9.9987C5.0013 9.07824 4.25509 8.33203 3.33464 8.33203C2.41416 8.33203 1.66797 9.07824 1.66797 9.9987C1.66797 10.9192 2.41416 11.6654 3.33464 11.6654Z" fill="#FF6832" stroke="#FF6832" stroke-width="0.833333"/>
<path d="M16.6667 11.6654C17.5871 11.6654 18.3333 10.9192 18.3333 9.9987C18.3333 9.07824 17.5871 8.33203 16.6667 8.33203C15.7462 8.33203 15 9.07824 15 9.9987C15 10.9192 15.7462 11.6654 16.6667 11.6654Z" fill="#FF6832" stroke="#FF6832" stroke-width="0.833333"/>
<path d="M5 10H15" stroke="#FF6832" stroke-width="0.833333"/>
<path d="M10 5V15" stroke="#FF6832" stroke-width="0.833333"/>
<path d="M15.5447 6.29691C15.3014 5.93336 15.0232 5.59507 14.7149 5.28686C14.4067 4.97861 14.0684 4.70041 13.7049 4.45703M6.29691 4.45703C5.93336 4.70041 5.59507 4.97861 5.28686 5.28686C4.97861 5.59507 4.70041 5.93336 4.45703 6.29691L6.29691 4.45703ZM4.45703 13.7049C4.70041 14.0684 4.97861 14.4067 5.28686 14.7149C5.59507 15.0232 5.93336 15.3014 6.29691 15.5447L4.45703 13.7049ZM13.7049 15.5447C14.0684 15.3014 14.4067 15.0232 14.7149 14.7149C15.0232 14.4067 15.3014 14.0684 15.5447 13.7049L13.7049 15.5447Z" stroke="#FF6832" stroke-width="0.833333"/>
</svg>
