<svg width="20" height="20" viewBox="0 0 20 20" fill="none" xmlns="http://www.w3.org/2000/svg">
<path d="M9.99996 10V5M9.99996 10L5.625 12.5259M9.99996 10L14.3749 12.5259" stroke="#FF6832" stroke-width="1.66667"/>
<path d="M5.83333 6.66667C5.83333 7.58712 5.08712 8.33333 4.16667 8.33333C3.24619 8.33333 2.5 7.58712 2.5 6.66667C2.5 5.74621 3.24619 5 4.16667 5C5.08712 5 5.83333 5.74621 5.83333 6.66667Z" fill="#FF6832" stroke="#FF6832" stroke-width="1.66667"/>
<path d="M5.83333 13.3346C5.83333 14.2551 5.08712 15.0013 4.16667 15.0013C3.24619 15.0013 2.5 14.2551 2.5 13.3346C2.5 12.4142 3.24619 11.668 4.16667 11.668C5.08712 11.668 5.83333 12.4142 5.83333 13.3346Z" fill="#FF6832" stroke="#FF6832" stroke-width="1.66667"/>
<path d="M11.6654 16.6667C11.6654 17.5871 10.9192 18.3333 9.9987 18.3333C9.07824 18.3333 8.33203 17.5871 8.33203 16.6667C8.33203 15.7462 9.07824 15 9.9987 15C10.9192 15 11.6654 15.7462 11.6654 16.6667Z" fill="#FF6832" stroke="#FF6832" stroke-width="1.66667"/>
<path d="M17.5013 13.3346C17.5013 14.2551 16.7551 15.0013 15.8346 15.0013C14.9142 15.0013 14.168 14.2551 14.168 13.3346C14.168 12.4142 14.9142 11.668 15.8346 11.668C16.7551 11.668 17.5013 12.4142 17.5013 13.3346Z" fill="#FF6832" stroke="#FF6832" stroke-width="1.66667"/>
<path d="M17.5013 6.66667C17.5013 7.58712 16.7551 8.33333 15.8346 8.33333C14.9142 8.33333 14.168 7.58712 14.168 6.66667C14.168 5.74621 14.9142 5 15.8346 5C16.7551 5 17.5013 5.74621 17.5013 6.66667Z" fill="#FF6832" stroke="#FF6832" stroke-width="1.66667"/>
<path d="M11.6654 3.33464C11.6654 4.25509 10.9192 5.0013 9.9987 5.0013C9.07824 5.0013 8.33203 4.25509 8.33203 3.33464C8.33203 2.41416 9.07824 1.66797 9.9987 1.66797C10.9192 1.66797 11.6654 2.41416 11.6654 3.33464Z" fill="#FF6832" stroke="#FF6832" stroke-width="1.66667"/>
</svg>
