<svg width="20" height="20" viewBox="0 0 20 20" fill="none" xmlns="http://www.w3.org/2000/svg">
<path d="M11.1797 15.4894L15.4894 11.1797" stroke="#FF55B8" stroke-width="0.833333"/>
<path d="M8.82139 11.1797L4.51172 15.4894" stroke="#FF55B8" stroke-width="0.833333"/>
<path d="M11.1797 8.82139L15.4894 4.51172" stroke="#FF55B8" stroke-width="0.833333"/>
<path d="M4.51172 8.82139L8.82139 4.51172" stroke="#FF55B8" stroke-width="0.833333"/>
<path d="M5.0013 3.33464C5.0013 4.25509 4.25509 5.0013 3.33464 5.0013C2.41416 5.0013 1.66797 4.25509 1.66797 3.33464C1.66797 2.41416 2.41416 1.66797 3.33464 1.66797C4.25509 1.66797 5.0013 2.41416 5.0013 3.33464Z" fill="#FF55B8" stroke="#FF55B8" stroke-width="0.833333"/>
<path d="M11.6654 3.33464C11.6654 4.25509 10.9192 5.0013 9.9987 5.0013C9.07824 5.0013 8.33203 4.25509 8.33203 3.33464C8.33203 2.41416 9.07824 1.66797 9.9987 1.66797C10.9192 1.66797 11.6654 2.41416 11.6654 3.33464Z" fill="#FF55B8" stroke="#FF55B8" stroke-width="0.833333"/>
<path d="M18.3333 3.33464C18.3333 4.25509 17.5871 5.0013 16.6667 5.0013C15.7462 5.0013 15 4.25509 15 3.33464C15 2.41416 15.7462 1.66797 16.6667 1.66797C17.5871 1.66797 18.3333 2.41416 18.3333 3.33464Z" fill="#FF55B8" stroke="#FF55B8" stroke-width="0.833333"/>
<path d="M18.3333 9.9987C18.3333 10.9192 17.5871 11.6654 16.6667 11.6654C15.7462 11.6654 15 10.9192 15 9.9987C15 9.07824 15.7462 8.33203 16.6667 8.33203C17.5871 8.33203 18.3333 9.07824 18.3333 9.9987Z" fill="#FF55B8" stroke="#FF55B8" stroke-width="0.833333"/>
<path d="M18.3333 16.6667C18.3333 17.5871 17.5871 18.3333 16.6667 18.3333C15.7462 18.3333 15 17.5871 15 16.6667C15 15.7462 15.7462 15 16.6667 15C17.5871 15 18.3333 15.7462 18.3333 16.6667Z" fill="#FF55B8" stroke="#FF55B8" stroke-width="0.833333"/>
<path d="M11.6654 16.6667C11.6654 17.5871 10.9192 18.3333 9.9987 18.3333C9.07824 18.3333 8.33203 17.5871 8.33203 16.6667C8.33203 15.7462 9.07824 15 9.9987 15C10.9192 15 11.6654 15.7462 11.6654 16.6667Z" fill="#FF55B8" stroke="#FF55B8" stroke-width="0.833333"/>
<path d="M5.0013 16.6667C5.0013 17.5871 4.25509 18.3333 3.33464 18.3333C2.41416 18.3333 1.66797 17.5871 1.66797 16.6667C1.66797 15.7462 2.41416 15 3.33464 15C4.25509 15 5.0013 15.7462 5.0013 16.6667Z" fill="#FF55B8" stroke="#FF55B8" stroke-width="0.833333"/>
<path d="M5.0013 9.9987C5.0013 10.9192 4.25509 11.6654 3.33464 11.6654C2.41416 11.6654 1.66797 10.9192 1.66797 9.9987C1.66797 9.07824 2.41416 8.33203 3.33464 8.33203C4.25509 8.33203 5.0013 9.07824 5.0013 9.9987Z" fill="#FF55B8" stroke="#FF55B8" stroke-width="0.833333"/>
<path d="M11.6654 9.9987C11.6654 10.9192 10.9192 11.6654 9.9987 11.6654C9.07824 11.6654 8.33203 10.9192 8.33203 9.9987C8.33203 9.07824 9.07824 8.33203 9.9987 8.33203C10.9192 8.33203 11.6654 9.07824 11.6654 9.9987Z" fill="#FF55B8" stroke="#FF55B8" stroke-width="0.833333"/>
</svg>
