<svg width="20" height="20" viewBox="0 0 20 20" fill="none" xmlns="http://www.w3.org/2000/svg">
<path fill-rule="evenodd" clip-rule="evenodd" d="M10 4.16797C10.6904 4.16797 11.25 3.60832 11.25 2.91797C11.25 2.22761 10.6904 1.66797 10 1.66797C9.30962 1.66797 8.75 2.22761 8.75 2.91797C8.75 3.60832 9.30962 4.16797 10 4.16797Z" fill="#7D58F3" stroke="#7D58F3" stroke-width="0.833333"/>
<path fill-rule="evenodd" clip-rule="evenodd" d="M10 18.332C10.6904 18.332 11.25 17.7724 11.25 17.082C11.25 16.3917 10.6904 15.832 10 15.832C9.30962 15.832 8.75 16.3917 8.75 17.082C8.75 17.7724 9.30962 18.332 10 18.332Z" fill="#7D58F3" stroke="#7D58F3" stroke-width="0.833333"/>
<path fill-rule="evenodd" clip-rule="evenodd" d="M2.91797 11.25C3.60832 11.25 4.16797 10.6904 4.16797 10C4.16797 9.30962 3.60832 8.75 2.91797 8.75C2.22761 8.75 1.66797 9.30962 1.66797 10C1.66797 10.6904 2.22761 11.25 2.91797 11.25Z" fill="#7D58F3" stroke="#7D58F3" stroke-width="0.833333"/>
<path fill-rule="evenodd" clip-rule="evenodd" d="M17.082 11.25C17.7724 11.25 18.332 10.6904 18.332 10C18.332 9.30962 17.7724 8.75 17.082 8.75C16.3917 8.75 15.832 9.30962 15.832 10C15.832 10.6904 16.3917 11.25 17.082 11.25Z" fill="#7D58F3" stroke="#7D58F3" stroke-width="0.833333"/>
<path d="M10.0818 6.55971C11.3695 6.55971 12.5057 5.91067 13.1809 4.92188C13.9649 5.39096 14.6333 6.03329 15.1333 6.796C14.0539 7.45437 13.3332 8.64296 13.3332 9.99983C13.3332 11.3927 14.0925 12.6081 15.2198 13.2548C14.7518 14.012 14.1208 14.6578 13.3756 15.1432C12.7395 13.9778 11.503 13.1872 10.0818 13.1872C8.66517 13.1872 7.432 13.9728 6.79413 15.1321C6.03225 14.6322 5.39058 13.9642 4.92188 13.1808C5.91067 12.5056 6.55971 11.3695 6.55971 10.0818C6.55971 8.79837 5.91496 7.6655 4.93167 6.9895C5.43925 6.14717 6.14721 5.43925 6.9895 4.93167C7.6655 5.91496 8.79837 6.55971 10.0818 6.55971Z" fill="#7D58F3" stroke="#7D58F3" stroke-width="0.833333"/>
</svg>
