<svg width="20" height="20" viewBox="0 0 20 20" fill="none" xmlns="http://www.w3.org/2000/svg">
<path d="M10.0013 5.83464C11.1519 5.83464 12.0846 4.90189 12.0846 3.7513C12.0846 2.60071 11.1519 1.66797 10.0013 1.66797C8.85072 1.66797 7.91797 2.60071 7.91797 3.7513C7.91797 4.90189 8.85072 5.83464 10.0013 5.83464Z" fill="#7D58F3" stroke="#7D58F3" stroke-width="0.833333"/>
<path d="M10.0013 18.3346C11.1519 18.3346 12.0846 17.4019 12.0846 16.2513C12.0846 15.1007 11.1519 14.168 10.0013 14.168C8.85072 14.168 7.91797 15.1007 7.91797 16.2513C7.91797 17.4019 8.85072 18.3346 10.0013 18.3346Z" fill="#7D58F3" stroke="#7D58F3" stroke-width="0.833333"/>
<path d="M5.83464 7.91797H1.66797V12.0846H5.83464V7.91797Z" fill="#7D58F3" stroke="#7D58F3" stroke-width="0.833333"/>
<path d="M18.3346 7.91797H14.168V12.0846H18.3346V7.91797Z" fill="#7D58F3" stroke="#7D58F3" stroke-width="0.833333"/>
<path d="M7.91667 3.75H3.75V7.91667" stroke="#7D58F3" stroke-width="0.833333"/>
<path d="M7.91667 16.2487H3.75V12.082" stroke="#7D58F3" stroke-width="0.833333"/>
<path d="M12.082 3.75H16.6654V7.91667" stroke="#7D58F3" stroke-width="0.833333"/>
<path d="M12.082 16.2487H16.2487V12.082" stroke="#7D58F3" stroke-width="0.833333"/>
</svg>
