<svg width="20" height="20" viewBox="0 0 20 20" fill="none" xmlns="http://www.w3.org/2000/svg">
<path d="M16.6667 5.0013C17.5871 5.0013 18.3333 4.25509 18.3333 3.33464C18.3333 2.41416 17.5871 1.66797 16.6667 1.66797C15.7462 1.66797 15 2.41416 15 3.33464C15 4.25509 15.7462 5.0013 16.6667 5.0013Z" fill="#294DCB" stroke="#294DCB" stroke-width="0.833333"/>
<path d="M16.6667 18.3333C17.5871 18.3333 18.3333 17.5871 18.3333 16.6667C18.3333 15.7462 17.5871 15 16.6667 15C15.7462 15 15 15.7462 15 16.6667C15 17.5871 15.7462 18.3333 16.6667 18.3333Z" fill="#294DCB" stroke="#294DCB" stroke-width="0.833333"/>
<path d="M3.33464 5.0013C4.25509 5.0013 5.0013 4.25509 5.0013 3.33464C5.0013 2.41416 4.25509 1.66797 3.33464 1.66797C2.41416 1.66797 1.66797 2.41416 1.66797 3.33464C1.66797 4.25509 2.41416 5.0013 3.33464 5.0013Z" fill="#294DCB" stroke="#294DCB" stroke-width="0.833333"/>
<path d="M3.33464 18.3333C4.25509 18.3333 5.0013 17.5871 5.0013 16.6667C5.0013 15.7462 4.25509 15 3.33464 15C2.41416 15 1.66797 15.7462 1.66797 16.6667C1.66797 17.5871 2.41416 18.3333 3.33464 18.3333Z" fill="#294DCB" stroke="#294DCB" stroke-width="0.833333"/>
<path d="M8.33203 3.33203H11.6654" stroke="#294DCB" stroke-width="0.833333"/>
<path d="M13.3346 6.66797L6.66797 13.3346" stroke="#294DCB" stroke-width="0.833333"/>
<path d="M16.668 8.33203V11.6654" stroke="#294DCB" stroke-width="0.833333"/>
</svg>
