<svg width="20" height="20" viewBox="0 0 20 20" fill="none" xmlns="http://www.w3.org/2000/svg">
<path d="M16.2513 5.83464C17.4019 5.83464 18.3346 4.90189 18.3346 3.7513C18.3346 2.60071 17.4019 1.66797 16.2513 1.66797C15.1007 1.66797 14.168 2.60071 14.168 3.7513C14.168 4.90189 15.1007 5.83464 16.2513 5.83464Z" fill="#294DCB" stroke="#294DCB" stroke-width="0.833333"/>
<path d="M3.7513 18.3346C4.90189 18.3346 5.83464 17.4019 5.83464 16.2513C5.83464 15.1007 4.90189 14.168 3.7513 14.168C2.60071 14.168 1.66797 15.1007 1.66797 16.2513C1.66797 17.4019 2.60071 18.3346 3.7513 18.3346Z" fill="#294DCB" stroke="#294DCB" stroke-width="0.833333"/>
<path d="M5.83464 1.66797H1.66797V5.83464H5.83464V1.66797Z" fill="#294DCB" stroke="#294DCB" stroke-width="0.833333"/>
<path d="M18.3346 14.168H14.168V18.3346H18.3346V14.168Z" fill="#294DCB" stroke="#294DCB" stroke-width="0.833333"/>
<path d="M14.1654 3.75H5.83203" stroke="#294DCB" stroke-width="0.833333"/>
<path d="M14.1654 16.25H5.83203" stroke="#294DCB" stroke-width="0.833333"/>
<path d="M3.75 14.1654V5.83203" stroke="#294DCB" stroke-width="0.833333"/>
<path d="M16.25 14.1654V5.83203" stroke="#294DCB" stroke-width="0.833333"/>
</svg>
